<?xml version="1.0" standalone="no"?>
<!DOCTYPE svg PUBLIC "-//W3C//DTD SVG 20010904//EN"
 "http://www.w3.org/TR/2001/REC-SVG-20010904/DTD/svg10.dtd">
<svg version="1.0" xmlns="http://www.w3.org/2000/svg"
 width="700.000000pt" height="700.000000pt" viewBox="0 0 700.000000 700.000000"
 preserveAspectRatio="xMidYMid meet">
<metadata>
Created by potrace 1.11, written by Peter Selinger 2001-2013
</metadata>
<g transform="translate(0.000000,700.000000) scale(0.100000,-0.100000)"
fill="#000000" stroke="none">
<path d="M3288 6545 c-1 -1 -62 -6 -134 -9 -72 -4 -140 -8 -150 -10 -10 -2
-41 -7 -69 -10 -27 -4 -75 -11 -105 -16 -30 -5 -71 -12 -90 -15 -19 -3 -43 -8
-52 -11 -9 -3 -25 -6 -35 -8 -301 -60 -696 -230 -991 -428 -234 -156 -476
-375 -641 -578 -29 -36 -60 -74 -68 -84 -116 -143 -275 -411 -368 -621 -103
-232 -192 -540 -221 -770 -3 -27 -8 -59 -10 -70 -25 -123 -24 -567 2 -742 6
-41 31 -190 39 -236 9 -47 63 -249 83 -313 90 -277 273 -633 434 -845 436
-572 1000 -952 1678 -1128 63 -16 138 -33 165 -36 28 -4 53 -9 56 -11 13 -7
167 -27 314 -39 65 -5 324 -6 395 0 91 7 174 15 190 20 8 2 37 6 63 10 161 20
390 82 617 167 156 59 351 152 474 228 37 22 73 40 82 40 8 0 133 -34 277 -76
144 -41 411 -118 592 -170 182 -51 344 -98 360 -104 17 -5 71 -21 120 -35 50
-15 143 -42 209 -61 65 -19 121 -33 123 -30 3 3 0 22 -7 43 -20 63 -115 313
-140 368 -5 11 -63 153 -128 315 -140 346 -284 694 -316 765 -13 28 -31 70
-40 95 l-17 45 56 117 c30 64 55 119 55 123 0 4 7 21 15 38 37 81 113 337 141
472 14 72 15 78 29 175 12 77 13 92 21 200 77 1055 -393 2064 -1246 2676 -394
283 -885 477 -1340 530 -30 3 -58 8 -61 10 -3 2 -80 6 -170 9 -90 4 -169 8
-176 10 -6 2 -13 2 -15 0z m-363 -1946 c126 -32 240 -92 311 -164 104 -104
141 -203 149 -397 l5 -118 -258 0 -259 0 -6 80 c-11 139 -47 180 -157 180 -87
0 -135 -31 -145 -93 -8 -50 -8 -65 -1 -117 13 -85 54 -119 266 -214 19 -9 46
-23 60 -30 14 -8 61 -31 105 -51 224 -102 358 -222 400 -359 8 -28 23 -73 32
-100 20 -60 19 -182 -2 -272 -18 -79 -28 -106 -61 -172 -116 -236 -412 -358
-774 -318 -297 32 -470 153 -548 383 -27 79 -37 146 -37 253 l0 85 263 2 c262
1 262 1 263 -20 10 -189 37 -255 117 -277 168 -46 286 65 249 235 -16 77 -63
115 -207 169 -195 73 -241 91 -305 124 -237 120 -330 273 -338 552 -5 163 23
277 99 395 98 154 263 243 484 262 36 3 66 6 68 8 10 8 162 -9 227 -26z m1233
-801 c0 -436 1 -804 1 -818 l1 -26 265 1 265 0 0 -232 0 -233 -530 0 c-291 0
-530 3 -531 8 -3 23 -4 2069 -1 2080 3 9 66 12 267 12 l263 0 0 -792z"/>
</g>
</svg>
